<?xml version="1.0" encoding="UTF-8"?>
<svg version="1.1" xmlns="http://www.w3.org/2000/svg" width="512" height="512">
<path d="M0 0 C3.77931483 3.13406596 6.01431944 6.48045833 7.5625 11.125 C8.15591741 18.1889496 7.48356381 23.67431742 4.5625 30.125 C5.32433594 30.17398438 6.08617187 30.22296875 6.87109375 30.2734375 C12.59335539 30.68778354 17.99649329 31.26442779 23.52734375 32.8203125 C26.19937987 33.22034862 27.98721253 32.95651915 30.5625 32.125 C32.61066436 30.37304661 32.61066436 30.37304661 34.5 28.125 C47.85545189 14.2388679 66.13115083 7.33097727 85.25 6.8125 C104.66998705 7.21487705 121.51197313 13.38670706 135.5625 27.125 C150.30675849 42.66498037 155.96291306 62.05826781 155.5625 83.125 C154.72428633 97.98832461 150.5058518 114.77603451 140.6640625 126.359375 C139.37211395 129.60299051 139.64642504 130.16811501 140.84375 133.3203125 C141.5652443 134.97156402 142.3061537 136.6144188 143.0625 138.25 C146.01689512 145.00642834 148.22693618 151.4184555 149.75 158.625 C151.92346867 168.17713653 156.76264106 175.29546684 162.26953125 183.2734375 C174.88979582 201.55957294 184.60609134 224.68924678 185.5625 247.125 C185.63984375 248.50751953 185.63984375 248.50751953 185.71875 249.91796875 C186.02803512 260.29190723 184.9557615 271.78141529 181.265625 281.5625 C180.26421068 286.63633254 181.85087284 290.02534959 183.6875 294.75 C190.96691729 314.90151404 192.77300421 334.86407497 192.5625 356.125 C193.4596875 356.2384375 194.356875 356.351875 195.28125 356.46875 C201.97314998 357.80713 207.01744118 361.87521598 210.9375 367.375 C218.5874468 380.2736603 218.48403769 396.31973793 214.875 410.625 C210.22724473 427.47415589 200.10519535 448.49721761 184.5625 458.125 C181.62272286 458.49759549 181.62272286 458.49759549 178.12009048 458.49414349 C177.47220473 458.49760502 176.82431898 458.50106655 176.15680033 458.50463298 C173.97671879 458.51260024 171.79729637 458.49909383 169.61724854 458.48576355 C168.04224579 458.48707131 166.46724368 458.48969718 164.89224505 458.49353105 C160.55719962 458.50025382 156.22237564 458.4882188 151.88735843 458.47319686 C147.21526509 458.46026653 142.54318469 458.46462383 137.87107849 458.46690369 C129.77399984 458.46847832 121.6769936 458.45904923 113.57993317 458.44219017 C101.87288976 458.41783053 90.16588143 458.40999801 78.45881543 458.4062262 C59.46585058 458.39965694 40.47292434 458.37968293 21.47998047 458.35131836 C3.027834 458.32379005 -15.42430199 458.30255046 -33.87646484 458.28979492 C-35.01345926 458.28900675 -36.15045369 458.28821858 -37.32190248 458.28740653 C-43.02575103 458.28349147 -48.72959965 458.27970033 -54.43344831 458.27597082 C-101.7681589 458.24486015 -149.10282757 458.19201146 -196.4375 458.125 C-195.38406769 449.34143204 -195.38406769 449.34143204 -194.0546875 445.09375 C-193.77834473 444.20905029 -193.50200195 443.32435059 -193.21728516 442.4128418 C-192.91870605 441.492854 -192.62012695 440.57286621 -192.3125 439.625 C-191.99974121 438.65667236 -191.68698242 437.68834473 -191.36474609 436.69067383 C-188.5754609 428.23683275 -185.34156513 420.1224545 -181.4375 412.125 C-180.93114014 411.08351807 -180.93114014 411.08351807 -180.41455078 410.02099609 C-173.30735994 395.59518768 -164.77601211 383.19056882 -153.6875 371.55078125 C-151.33472606 369.14324052 -151.33472606 369.14324052 -149.4375 366.125 C-149.97004395 365.84414551 -150.50258789 365.56329102 -151.05126953 365.27392578 C-184.45029174 347.55742272 -212.25037018 324.81234045 -224.6875 287.875 C-234.22136883 254.13661073 -229.50076239 217.6188089 -217.4375 185.125 C-218.17871094 184.84398437 -218.91992188 184.56296875 -219.68359375 184.2734375 C-236.91752547 177.08652129 -249.25453615 159.62824602 -256.37890625 142.98828125 C-264.87835048 119.9990096 -265.0004575 96.7593837 -254.8125 74.375 C-250.99437015 66.46459965 -246.19956262 59.72534126 -240.4375 53.125 C-239.66792969 52.24328125 -238.89835937 51.3615625 -238.10546875 50.453125 C-223.47179522 34.82445874 -201.74380026 23.68811102 -180.1875 22.921875 C-158.77653468 22.56843987 -138.30391528 27.99222078 -122.328125 42.9296875 C-119.97081794 45.2803355 -117.67247986 47.65828259 -115.4375 50.125 C-110.63153156 48.61798025 -106.09211783 46.73375118 -101.5 44.6875 C-100.13682966 44.08438467 -98.77354923 43.48151811 -97.41015625 42.87890625 C-96.74741699 42.58008545 -96.08467773 42.28126465 -95.40185547 41.97338867 C-93.53142365 41.16556484 -91.61525873 40.46617505 -89.69921875 39.7734375 C-85.76984278 37.78757324 -84.48027503 35.91100275 -82.1875 32.1875 C-70.86465633 14.74492891 -54.16303829 -0.4119727 -33.484375 -5.40234375 C-21.23131906 -7.30313833 -10.94176066 -5.96823309 0 0 Z " fill="#020202" transform="translate(276.4375,47.875)"/>
<path d="M0 0 C4.62295082 3.24590164 4.62295082 3.24590164 6 6 C6.65035952 10.64542516 6.13214418 13.32869783 3.4375 17.0625 C2.32084824 18.39991509 1.17527673 19.71379827 0 21 C-0.46019531 21.51433594 -0.92039062 22.02867188 -1.39453125 22.55859375 C-7.35041179 28.35732704 -15.58450342 31.4812083 -23 35 C-23.99 35.495 -23.99 35.495 -25 36 C-25 36.99 -25 37.98 -25 39 C-24.39414063 38.95359375 -23.78828125 38.9071875 -23.1640625 38.859375 C-14.60078288 38.49049526 -7.74461034 40.59601647 -0.9375 45.875 C1.39661703 48.05461283 2.02151072 49.06094705 3.125 52.1875 C3 55 3 55 1.6875 56.8125 C-2.84828931 60.00435174 -7.63603636 59.47155724 -13 59 C-20.63235902 57.30186934 -27.7241424 54.42151633 -34.7578125 51.05078125 C-37.08571778 49.90685329 -37.08571778 49.90685329 -40 49 C-35.62542902 57.74914195 -27.51168286 61.88012198 -18.75 65.25 C-10.57959489 66.88408102 -1.47119048 67.20155744 6 63 C8.99802786 59.78260425 9.88003169 57.83977814 10.5 53.5 C9.70561727 47.93932089 7.15715414 45.08168757 3.125 41.3125 C0.17835722 39.13198435 -2.66704439 37.50776563 -6 36 C-2.53937474 32.53937474 0.68813388 31.06994716 5.58984375 30.80859375 C10.4724352 30.90033814 15.15682957 31.74218472 19.9375 32.6875 C20.85772949 32.86829102 21.77795898 33.04908203 22.72607422 33.23535156 C53.94964079 39.57181952 80.78584791 53.0281955 104 75 C104.94617188 75.87011719 105.89234375 76.74023438 106.8671875 77.63671875 C128.34219009 97.83712586 143.37567832 126.84757665 149.76953125 155.44140625 C151.64926073 163.12340573 154.45213054 168.68054961 158.93725586 175.05151367 C168.35631131 188.4997078 175.06932942 203.37900126 180 219 C180.3609375 220.14210938 180.721875 221.28421875 181.09375 222.4609375 C184.40139037 235.10959929 185.38829734 251.56940476 181 264 C178.4789179 261.50588135 175.99800432 258.99782909 173.59765625 256.38671875 C160.42868023 242.36551315 143.71315511 235.7671327 125 232 C127.08336539 229.83947293 129.13371558 227.8979539 131.5234375 226.07421875 C139.77865346 219.16014986 143.57144572 208.3725463 145 198 C146.50250952 173.02385821 138.60152804 150.11248075 121.92553711 131.25366211 C119.67242209 128.77828399 117.34787774 126.38602642 115 124 C114.34386719 123.319375 113.68773437 122.63875 113.01171875 121.9375 C105.17753648 114.4220532 95.67269239 109.34476602 84.75 109.3125 C75.83076514 109.5835529 68.14341341 111.99640661 61.58984375 118.1953125 C48.48910048 133.06642648 47.86568399 154.21091074 49 173 C51.33648256 193.33783618 61.42959881 212.7315352 77 226 C82.91336909 230.26247583 88.98563837 233.06850912 96 235 C92.6848011 237.71764453 89.1818769 239.42811517 85.3125 241.25 C79.25082789 244.20251988 74.09665971 247.54965583 69 252 C68.1440625 252.72445312 67.288125 253.44890625 66.40625 254.1953125 C61.5115782 258.44216009 57.48900731 262.53388855 54 268 C51.05163808 266.87353034 48.19073932 265.63146977 45.34765625 264.265625 C29.91487135 256.94156063 13.25493265 251.05862378 -4 251 C-4.81903809 250.99307129 -5.63807617 250.98614258 -6.48193359 250.97900391 C-12.32214487 250.93231542 -18.15988489 250.94759618 -24 251 C-22.79174252 248.54990387 -21.53400832 246.16988929 -20.1953125 243.78515625 C-15.69744305 235.74968538 -12.22186644 227.99745916 -10 219 C-9.82412354 218.34169189 -9.64824707 217.68338379 -9.46704102 217.00512695 C-7.953923 210.95198209 -7.65089765 205.16199063 -7.6875 198.9375 C-7.69595947 197.42349609 -7.69595947 197.42349609 -7.70458984 195.87890625 C-8.04273219 174.82703433 -14.24143021 155.40010048 -28.75 139.6875 C-41.03891231 128.12146489 -54.00387789 125.51120346 -70.1953125 125.69921875 C-86.86628779 126.34098563 -100.81848347 136.33303413 -112 148 C-130.07430714 170.22059407 -138.99798942 198.7129464 -136.75 227.1640625 C-135.24238014 239.06797761 -130.19985791 250.23826746 -122 259 C-121.42894531 259.61230469 -120.85789062 260.22460938 -120.26953125 260.85546875 C-109.44149108 271.31410883 -95.57930427 274.98159272 -81 276 C-81.804375 276.928125 -82.60875 277.85625 -83.4375 278.8125 C-83.98535156 279.45703125 -84.53320312 280.1015625 -85.09765625 280.765625 C-86.4274141 282.32747611 -87.76963017 283.87876742 -89.12109375 285.421875 C-105.91347954 305.09545004 -114.00182777 328.50093653 -116 354 C-122.57573009 353.48855433 -128.00566267 351.15417717 -134 348.5 C-135.01731201 348.05221191 -136.03462402 347.60442383 -137.08276367 347.14306641 C-149.51644272 341.5603573 -160.66915578 334.95918591 -171 326 C-172.22783203 324.97132813 -172.22783203 324.97132813 -173.48046875 323.921875 C-193.70115164 306.49133285 -207.56790545 280.77509986 -210 254 C-211.67639784 228.5632751 -208.06499794 201.58085233 -198 178 C-196.865625 178.03480469 -195.73125 178.06960937 -194.5625 178.10546875 C-183.4326181 178.44348079 -183.4326181 178.44348079 -173 175 C-171.453125 174.38125 -171.453125 174.38125 -169.875 173.75 C-162.41682593 169.21024187 -158.94664057 161.52544093 -155.1875 153.9375 C-142.58631454 129.23573483 -142.58631454 129.23573483 -132 121 C-129.58782521 118.95643206 -127.20238302 116.88205745 -124.8125 114.8125 C-123.63280401 113.79667288 -122.45186 112.78229287 -121.26953125 111.76953125 C-120.4343396 111.05313477 -120.4343396 111.05313477 -119.58227539 110.32226562 C-118.18858514 109.15759561 -116.74585906 108.05214493 -115.296875 106.95703125 C-107.63023473 100.42474081 -102.47861847 88.88644899 -101 79 C-100.95704382 76.58371514 -100.95955936 74.16632827 -101 71.75 C-101.03733926 69.50030985 -101.04711009 67.24950675 -101 65 C-100.67 64.67 -100.34 64.34 -100 64 C-99.80730415 59.85703932 -100.28246307 56.07173736 -101 52 C-98.46235709 50.76190061 -95.92088075 49.53348086 -93.375 48.3125 C-92.60679932 47.94092773 -91.83859863 47.56935547 -91.04711914 47.18652344 C-87.42596341 45.47039261 -83.89365148 43.87850574 -80.03515625 42.77734375 C-71.64363312 40.38106733 -68.33738519 37.81038627 -63.9765625 30.2578125 C-52.03225497 10.57094989 -23.53398129 -11.56055221 0 0 Z " fill="#F4F4F4" transform="translate(267,56)"/>
<path d="M0 0 C1.11246094 0.52078125 2.22492188 1.0415625 3.37109375 1.578125 C22.16797004 11.05123859 32.43616392 27.21661129 39.03686523 46.79492188 C44.42290667 63.49670289 46.17768884 80.25730445 46.125 97.75 C46.12886719 99.0184375 46.13273437 100.286875 46.13671875 101.59375 C46.1041581 133.50319172 40.13285644 165.73913567 28.3828125 195.4375 C26.90581292 199.02272312 26.90581292 199.02272312 26 203 C-51.22 203 -128.44 203 -208 203 C-208.66 201.35 -209.32 199.7 -210 198 C-209.26998779 197.64284912 -208.53997559 197.28569824 -207.7878418 196.91772461 C-205.02129586 195.56036546 -202.25770575 194.19719556 -199.49584961 192.83032227 C-197.73570579 191.96130027 -195.97238547 191.09872136 -194.20898438 190.23632812 C-171.62240074 179.03901329 -145.14333212 162.56013245 -136.5625 137.5625 C-133.75043016 127.1738053 -133.84816364 119.2232632 -139.171875 109.6953125 C-146.81309164 98.42941617 -160.1087635 93.57547797 -173 91 C-198.31825836 88.44260017 -221.97041803 100.79458831 -242.16601562 114.76269531 C-244.77217952 116.56137564 -246.97673965 117.99224655 -250 119 C-255.37690164 108.24619673 -250.42678578 89.92146129 -247 79 C-246.649375 77.87335938 -246.29875 76.74671875 -245.9375 75.5859375 C-237.76988929 52.27421527 -220.09320025 32.9416443 -198 22 C-172.69485926 10.60399763 -145.40248696 9.77713013 -119 18 C-118.33726074 18.19754883 -117.67452148 18.39509766 -116.99169922 18.59863281 C-93.41292659 25.72581076 -71.85408296 41.29173031 -57.4375 61.22265625 C-55.93910359 63.25590149 -55.93910359 63.25590149 -53 65 C-55.03138561 58.7879812 -57.69124585 54.14552817 -61.6875 49 C-62.49151245 47.95017944 -62.49151245 47.95017944 -63.31176758 46.87915039 C-69.67531604 38.6827012 -76.66567372 32.17357502 -85 26 C-75.36839528 11.08523658 -58.88331527 1.46739964 -42.18701172 -3.54418945 C-29.24034279 -6.24249609 -12.03164199 -5.75352781 0 0 Z " fill="#D82928" transform="translate(412,303)"/>
<path d="M0 0 C15.15150093 12.56885873 23.12280125 31.69732762 25 51 C26.46977898 72.50232211 22.99095826 91.38634576 11.33203125 109.84375 C9.94270685 111.94217958 9.94270685 111.94217958 9.15234375 114.21875 C8 116 8 116 5.671875 116.6875 C4.70765625 116.790625 3.7434375 116.89375 2.75 117 C-15.63633816 119.58284274 -35.60652051 127.60652051 -49 141 C-51.53777522 140.94851769 -53.87105022 140.77118693 -56.375 140.4375 C-57.09381348 140.34235107 -57.81262695 140.24720215 -58.55322266 140.14916992 C-72.2518321 138.098489 -85.26131885 130.86152114 -94 120 C-105.50753099 103.44573402 -108.34109707 84.04209773 -104.82202148 64.44677734 C-99.52726935 37.72185209 -86.94642441 13.09508893 -64.296875 -2.91015625 C-44.15037213 -15.48627077 -18.84341259 -14.27445261 0 0 Z " fill="#323C4D" transform="translate(235,192)"/>
<path d="M0 0 C9.07624799 6.86662213 17.06934425 15.27231341 22.53515625 25.29296875 C22.53515625 25.95296875 22.53515625 26.61296875 22.53515625 27.29296875 C23.85515625 27.29296875 25.17515625 27.29296875 26.53515625 27.29296875 C29.41094422 37.60372075 26.81076021 47.68655403 22.14453125 57.09765625 C17.16542015 65.71938021 11.26303178 71.70010189 3.49609375 77.87109375 C-0.58930924 81.21271624 -4.41056564 84.8027812 -8.25 88.421875 C-10.46484375 90.29296875 -10.46484375 90.29296875 -12.46484375 90.29296875 C-12.72265625 91.00195312 -12.98046875 91.7109375 -13.24609375 92.44140625 C-14.55714606 95.50893249 -16.15918985 98.11328503 -17.96484375 100.91796875 C-20.98341469 105.66744887 -23.65077103 110.51892699 -26.1940918 115.53857422 C-35.73653563 134.34479686 -35.73653563 134.34479686 -44.08984375 138.29296875 C-47.22278189 139.22124672 -50.22277267 139.89759423 -53.46484375 140.29296875 C-53.79484375 139.63296875 -54.12484375 138.97296875 -54.46484375 138.29296875 C-56.71625324 137.63866216 -58.99294217 137.07067246 -61.27734375 136.54296875 C-79.56476706 131.9244281 -93.38081165 121.17429865 -103.46484375 105.29296875 C-113.81126544 87.24472643 -118.57263343 66.09893795 -113.08203125 45.53369141 C-106.08193804 23.66393817 -90.98817213 6.49937118 -70.71484375 -4.01953125 C-47.97704218 -15.18197171 -21.1931704 -14.67736207 0 0 Z " fill="#222A38" transform="translate(139.46484375,93.70703125)"/>
<path d="M0 0 C4.0050207 3.18088286 6.88622745 7.16307989 9.1640625 11.71875 C10.34848959 24.30751797 7.60639833 31.51397789 -0.0234375 41.28125 C-17.04734173 61.17497769 -40.96250333 73.65613168 -63.671875 85.921875 C-67.09992367 87.77536063 -70.5239528 89.63554408 -73.9375 91.515625 C-74.66533691 91.91620117 -75.39317383 92.31677734 -76.14306641 92.72949219 C-77.80836685 93.60659675 -77.80836685 93.60659675 -78.8359375 94.71875 C-81.6358347 94.81394368 -84.41099924 94.84428944 -87.21118164 94.83227539 C-88.52813271 94.83249443 -88.52813271 94.83249443 -89.87168884 94.8327179 C-92.78818185 94.83201844 -95.70461183 94.82422455 -98.62109375 94.81640625 C-100.63748642 94.81454218 -102.65387954 94.81311823 -104.67027283 94.81211853 C-109.98858888 94.80829244 -115.3068778 94.79846139 -120.62518311 94.78741455 C-126.04764438 94.77720238 -131.47011002 94.77262133 -136.89257812 94.76757812 C-147.54037653 94.7568392 -158.18815476 94.73976169 -168.8359375 94.71875 C-168.05118497 91.839166 -167.26264791 88.96070818 -166.47192383 86.08276367 C-166.25167793 85.27304863 -166.03143204 84.46333359 -165.80451202 83.62908173 C-164.13162956 77.55716296 -162.10982862 71.7793055 -159.5234375 66.03125 C-159.13736328 65.15533203 -158.75128906 64.27941406 -158.35351562 63.37695312 C-148.26398154 40.80347835 -134.63171357 21.81968015 -116.8359375 4.71875 C-111.8859375 6.20375 -111.8859375 6.20375 -106.8359375 7.71875 C-105.16390095 14.67090196 -105.16390095 14.67090196 -105.8359375 18.71875 C-108.41738413 21.60945479 -111.10946988 23.64887863 -114.296875 25.84375 C-117.09355749 27.53277746 -117.09355749 27.53277746 -117.8359375 30.71875 C-112.12224997 28.48164483 -107.21754226 25.56203589 -102.0859375 22.21875 C-33.6567345 -21.48768718 -33.6567345 -21.48768718 0 0 Z " fill="#313B4C" transform="translate(258.8359375,411.28125)"/>
<path d="M0 0 C5.74371383 3.73181991 10.54861448 8.36674888 15.31640625 13.25 C16.11820312 14.04277344 16.92 14.83554688 17.74609375 15.65234375 C33.48135138 32.01374485 42.87584405 55.01798165 42.67016602 77.6496582 C42.25006268 91.6835015 37.622694 104.46020048 27.31640625 114.25 C24.37890625 116.25 24.37890625 116.25 22.31640625 117.25 C22.97640625 117.91 23.63640625 118.57 24.31640625 119.25 C22.73666016 119.19779297 22.73666016 119.19779297 21.125 119.14453125 C13.57303592 118.97878653 6.79758584 119.17421289 -0.55859375 121 C-9.00274075 122.87647711 -13.94171234 121.01367322 -21.23046875 116.765625 C-39.22073716 105.03284126 -49.72565281 86.80900976 -54.55175781 66.20727539 C-57.41895637 51.93962492 -56.97654932 36.16509737 -52.68359375 22.25 C-52.40515625 21.3425 -52.12671875 20.435 -51.83984375 19.5 C-48.33189803 9.58098106 -42.06291241 2.09042672 -32.68359375 -2.75 C-21.46881915 -7.24214894 -10.31048043 -5.81797303 0 0 Z " fill="#333D4E" transform="translate(370.68359375,169.75)"/>
<path d="M0 0 C4.54987381 3.16853497 8.53247292 6.87573636 12.49609375 10.73828125 C13.38296875 11.56328125 14.26984375 12.38828125 15.18359375 13.23828125 C26.71629521 25.70606661 36.42256519 42.45596362 35.90625 59.8984375 C35.25733208 64.39142155 33.66560223 67.50392349 30.49609375 70.73828125 C22.89079143 75.8084828 13.11401567 74.42311743 4.53271484 72.70849609 C-19.03034851 67.43023836 -50.11909176 54.9850497 -64.1875 34.2578125 C-69.31824594 25.92804032 -71.5067054 19.62485239 -70.50390625 9.73828125 C-68.7278891 2.98267171 -64.36143654 -0.79249607 -58.50390625 -4.26171875 C-40.01723536 -13.76307834 -17.53557885 -10.32917658 0 0 Z " fill="#F05F4A" transform="translate(314.50390625,346.26171875)"/>
<path d="M0 0 C5.28 0.33 10.56 0.66 16 1 C15.11289148 12.2789512 15.11289148 12.2789512 14.49291992 16.23876953 C10.15916327 49.30754366 15.40456469 85.49224814 35.6875 112.625 C48.98100151 129.58934082 66.5681523 139.39034471 86 148 C85.79503906 149.01578125 85.59007812 150.0315625 85.37890625 151.078125 C83.74159373 159.37896577 82.46498251 167.53411161 82 176 C75.42426991 175.48855433 69.99433733 173.15417717 64 170.5 C62.98268799 170.05221191 61.96537598 169.60442383 60.91723633 169.14306641 C48.48355728 163.5603573 37.33084422 156.95918591 27 148 C26.18144531 147.31421875 25.36289063 146.6284375 24.51953125 145.921875 C4.29884836 128.49133285 -9.56790545 102.77509986 -12 76 C-13.70046019 50.19816644 -9.61296061 24.03240152 0 0 Z " fill="#CACACA" transform="translate(69,234)"/>
<path d="M0 0 C9.64049628 6.85366374 15.92760422 17.06198403 18.63671875 28.52734375 C20.17997527 42.73289349 18.39032274 55.8276523 10.10546875 67.7265625 C4.45446247 74.72368113 -3.41834164 80.01125229 -12.36328125 81.52734375 C-24.49760579 82.56142733 -33.97794265 80.27077926 -43.3671875 72.37109375 C-52.84095812 63.6203702 -57.93640195 53.22846072 -58.6171875 40.34765625 C-59.12945335 25.59626814 -55.83836569 16.01257474 -46.05078125 4.90234375 C-32.65867705 -6.93253903 -15.54576241 -9.6871941 0 0 Z " fill="#010102" transform="translate(230.36328125,224.47265625)"/>
<path d="M0 0 C9.07624799 6.86662213 17.06934425 15.27231341 22.53515625 25.29296875 C22.53515625 25.95296875 22.53515625 26.61296875 22.53515625 27.29296875 C23.85515625 27.29296875 25.17515625 27.29296875 26.53515625 27.29296875 C28.97979523 35.94777935 27.21352153 43.90713461 24.53515625 52.29296875 C24.20515625 52.29296875 23.87515625 52.29296875 23.53515625 52.29296875 C23.44041016 51.38417969 23.44041016 51.38417969 23.34375 50.45703125 C22.10695726 41.99476517 18.72604449 35.59890321 11.9453125 30.25 C-5.3449615 18.87673422 -23.85685657 16.09815671 -44.21875 18.7890625 C-60.6501802 22.58093101 -74.00462859 33.35031915 -83.40625 47.140625 C-96.28408724 68.25137763 -99.2034484 91.34609166 -94.46484375 115.29296875 C-98.72966132 112.27455913 -101.35550238 108.87101581 -103.96484375 104.41796875 C-104.54685547 103.43691162 -104.54685547 103.43691162 -105.140625 102.43603516 C-114.78032954 85.65118172 -118.12844226 64.43520409 -113.08203125 45.53369141 C-106.08193804 23.66393817 -90.98817213 6.49937118 -70.71484375 -4.01953125 C-47.97704218 -15.18197171 -21.1931704 -14.67736207 0 0 Z " fill="#313B4C" transform="translate(139.46484375,93.70703125)"/>
<path d="M0 0 C12.17039765 10.564708 20.90306555 24.81711883 22.30175781 41.11083984 C23.40239051 58.87671283 19.93078546 74.35716884 11.10546875 89.82421875 C8.10546875 88.82421875 8.10546875 88.82421875 6.8515625 86.8125 C6.20380859 85.48798828 6.20380859 85.48798828 5.54296875 84.13671875 C-1.471233 70.7680669 -11.11458799 59.32775321 -21.89453125 48.82421875 C-22.42949219 48.25574219 -22.96445312 47.68726563 -23.515625 47.1015625 C-28.09771198 42.30989981 -33.01665634 38.26826349 -38.32617188 34.32543945 C-41.42559136 32.01446056 -44.23817933 29.63530962 -46.89453125 26.82421875 C-41.49146617 24.12268621 -32.50493259 25.04579573 -26.85546875 26.73046875 C-18.66020476 30.59288924 -14.24442087 36.51896247 -10.89453125 44.82421875 C-10.09157657 47.4825885 -9.47727386 50.10475324 -8.89453125 52.82421875 C-7.90453125 52.82421875 -6.91453125 52.82421875 -5.89453125 52.82421875 C-5.93239006 43.20808063 -8.46201066 35.10148095 -14.71875 27.65234375 C-21.02859544 21.66247019 -28.22051313 18.66895537 -36.89453125 18.32421875 C-42.06703677 18.47733024 -46.03780747 19.73378396 -50.640625 22.046875 C-55.49246002 23.72021152 -59.58454801 21.15106317 -63.92407227 19.04296875 C-64.65682373 18.68203125 -65.3895752 18.32109375 -66.14453125 17.94921875 C-71.97313346 15.13442123 -77.66359314 12.63685529 -83.89453125 10.82421875 C-79.58020134 1.02086513 -67.49356602 -4.87222391 -58.14453125 -8.98828125 C-38.62625928 -15.63105448 -16.42305776 -12.34499753 0 0 Z " fill="#313B4C" transform="translate(398.89453125,78.17578125)"/>
<path d="M0 0 C10.25229531 7.44424866 16.36557459 16.59270615 19 29 C19.91100195 37.33504953 19.80307932 45.39384135 16 53 C15.608125 53.969375 15.21625 54.93875 14.8125 55.9375 C10.08815561 63.92001294 4.06122705 70.29339971 -5 73 C-13.52782626 74.14819099 -21.55121301 73.27056943 -28.56640625 68.11328125 C-38.66314925 59.49117434 -45.07879817 49.47521878 -46.3828125 36.0625 C-46.86790414 24.98052872 -44.75118353 15.50930292 -37.6328125 6.78125 C-27.09058311 -4.71936388 -14.06651603 -7.57115509 0 0 Z " fill="#010102" transform="translate(374,205)"/>
<path d="M0 0 C0.82371094 -0.01224609 1.64742187 -0.02449219 2.49609375 -0.03710938 C6.87068371 -0.04767602 10.26792084 0.13980482 14.25 2.1875 C-2.02283988 18.96331857 -23.66332058 29.91308754 -44.06738281 40.75341797 C-50.80018685 43.91135455 -50.80018685 43.91135455 -56.75 48.1875 C-58.95867831 48.28182985 -61.17041521 48.30492431 -63.38110352 48.30102539 C-64.07375305 48.30117142 -64.76640259 48.30131744 -65.4800415 48.3014679 C-67.77969446 48.30076874 -70.07926737 48.29297628 -72.37890625 48.28515625 C-73.96931412 48.28329208 -75.55972257 48.28186817 -77.15013123 48.28086853 C-81.3439593 48.27704329 -85.53775295 48.26721295 -89.73156738 48.25616455 C-94.00788914 48.24595057 -98.28421644 48.24137094 -102.56054688 48.23632812 C-110.95704708 48.22559069 -119.35351926 48.20851419 -127.75 48.1875 C-123.99656702 45.11130952 -120.23068054 42.6750154 -115.921875 40.46484375 C-114.9357724 39.95190514 -114.9357724 39.95190514 -113.92974854 39.42860413 C-111.79028243 38.31987676 -109.6458708 37.22127562 -107.5 36.125 C-106.76313965 35.74722412 -106.0262793 35.36944824 -105.26708984 34.98022461 C-80.45353152 22.28335405 -55.04461487 11.49499572 -28.25 3.6875 C-27.42016602 3.44410889 -26.59033203 3.20071777 -25.73535156 2.94995117 C-17.18928875 0.56043851 -8.8433937 0.00705215 0 0 Z " fill="#212937" transform="translate(236.75,457.8125)"/>
<path d="M0 0 C1.23856993 0.88278683 2.47185095 1.77340731 3.6875 2.6875 C2.39855894 10.12081056 -1.56855828 14.12160306 -7.16015625 18.828125 C-10.73822834 21.91916368 -13.99996159 25.31760162 -17.3125 28.6875 C-18.158125 29.5125 -19.00375 30.3375 -19.875 31.1875 C-29.34285006 40.89811545 -36.70056754 51.87722064 -43.3125 63.6875 C-50.47593267 62.30256968 -55.95728633 56.7654591 -59.9921875 50.93359375 C-65.56329135 41.45612418 -67.06815635 31.40055204 -64.6171875 20.6328125 C-61.01691603 9.71098055 -53.47547674 0.73496943 -43.25 -4.625 C-28.09247824 -11.42982191 -13.66126469 -8.98655068 0 0 Z " fill="#E1707D" transform="translate(135.3125,134.3125)"/>
<path d="M0 0 C20.2601051 -0.67507719 36.62525564 0.89252256 53.1875 14.0625 C72.53497272 32.34647527 80.31943604 61.20071729 82 87 C82.13630333 91.91756843 82.13981681 96.83082031 82.125 101.75 C82.12886719 103.0184375 82.13273437 104.286875 82.13671875 105.59375 C82.12478148 117.29227863 81.67194315 128.87135968 79.4375 140.375 C79.29892578 141.12265625 79.16035156 141.8703125 79.01757812 142.640625 C78.68524067 144.42837131 78.34371595 146.21440643 78 148 C77.67 148 77.34 148 77 148 C76.94054199 146.90985596 76.88108398 145.81971191 76.81982422 144.6965332 C74.39941102 101.6478832 69.77150063 56.31928513 38 24 C37.31421875 23.30132812 36.6284375 22.60265625 35.921875 21.8828125 C25.63122135 12.08763477 13.43137135 6.91278045 0 3 C0 2.01 0 1.02 0 0 Z " fill="#EA523E" transform="translate(376,299)"/>
<path d="M0 0 C9.239754 7.88417457 15.9512768 17.98212087 17.80078125 30.16796875 C18.71709752 41.79710023 17.38938527 52.05357332 13.31640625 62.9765625 C9.39908314 61.67078813 8.8585453 60.07076863 6.69140625 56.6015625 C2.64477138 50.34564353 -1.86351188 44.66155626 -6.68359375 38.9765625 C-7.21855469 38.31785156 -7.75351562 37.65914062 -8.3046875 36.98046875 C-12.02095516 32.45850621 -16.20070299 28.72602539 -20.68359375 24.9765625 C-21.65167969 24.15542969 -22.61976563 23.33429688 -23.6171875 22.48828125 C-28.82194242 18.09161151 -34.04873782 13.81850972 -39.68359375 9.9765625 C-36.81029567 7.10326442 -34.69473346 7.60780179 -30.68359375 7.5390625 C-22.94040081 7.54462115 -16.98381248 9.19790495 -11.10546875 14.36328125 C-5.78599533 20.21149751 -3.30633709 27.40376025 -1.68359375 34.9765625 C-0.69359375 34.9765625 0.29640625 34.9765625 1.31640625 34.9765625 C1.27854744 25.36042438 -1.25107316 17.2538247 -7.5078125 9.8046875 C-13.81765794 3.81481394 -21.00957563 0.82129912 -29.68359375 0.4765625 C-34.85609927 0.62967399 -38.82686997 1.88612771 -43.4296875 4.19921875 C-47.00318164 5.43167167 -49.54610704 4.47086301 -52.921875 3.00390625 C-53.60636719 2.64425781 -54.29085938 2.28460938 -54.99609375 1.9140625 C-55.69347656 1.55183594 -56.39085937 1.18960938 -57.109375 0.81640625 C-57.62886719 0.53925781 -58.14835937 0.26210937 -58.68359375 -0.0234375 C-55.45744711 -2.71451591 -52.22491048 -4.16041972 -48.30859375 -5.6484375 C-47.20773437 -6.07382813 -46.106875 -6.49921875 -44.97265625 -6.9375 C-29.51705113 -12.0404195 -12.96683871 -9.78236628 0 0 Z " fill="#222937" transform="translate(391.68359375,96.0234375)"/>
<path d="M0 0 C-3.005636 3.005636 -6.6935535 2.92532265 -10.75 3.515625 C-12.57558268 3.80038505 -14.40110132 4.0855559 -16.2265625 4.37109375 C-19.08606758 4.80889183 -21.94610674 5.24200505 -24.80761719 5.66650391 C-50.8221055 9.55724724 -74.96892595 16.70002937 -92.25 37.6875 C-100.19782279 49.25652016 -104.42705416 61.32276158 -107 75 C-107.33 75 -107.66 75 -108 75 C-109.14118541 51.66909833 -102.65823454 33.35622343 -86.90234375 15.96875 C-64.69175821 -7.36840538 -28.85864028 -15.74527414 0 0 Z " fill="#445063" transform="translate(133,90)"/>
<path d="M0 0 C4.0050207 3.18088286 6.88622745 7.16307989 9.1640625 11.71875 C9.23522632 14.09277501 9.24815335 16.46875677 9.2265625 18.84375 C9.21753906 20.12507813 9.20851563 21.40640625 9.19921875 22.7265625 C9.18181641 24.20769531 9.18181641 24.20769531 9.1640625 25.71875 C8.5040625 25.71875 7.8440625 25.71875 7.1640625 25.71875 C5.9375 23.9609375 5.9375 23.9609375 4.5390625 21.59375 C-0.76898538 13.39977318 -7.55378435 9.82788485 -16.75952148 7.16162109 C-31.63669518 3.98852373 -47.72576188 6.79108806 -61.8359375 11.71875 C-62.75938965 12.03569824 -63.6828418 12.35264648 -64.63427734 12.67919922 C-80.52298929 18.23200166 -95.67613293 25.20238001 -110.80297852 32.53637695 C-111.8701561 33.05073555 -111.8701561 33.05073555 -112.95889282 33.57548523 C-114.30058052 34.22322017 -115.63982158 34.8760557 -116.97616577 35.53474426 C-119.80481426 36.90001184 -121.64958232 37.71875 -124.8359375 37.71875 C-121.25352998 33.78683931 -118.82960865 31.65930609 -113.84594727 29.64575195 C-109.82895028 27.79314202 -106.24930084 25.17942695 -102.5859375 22.71875 C-73.50339796 3.57879864 -34.19766623 -21.83303772 0 0 Z " fill="#445063" transform="translate(258.8359375,411.28125)"/>
<path d="M0 0 C4.42350331 0.50554324 6.78071602 1.95015202 10 5 C15.64862515 12.74070854 15.32753682 20.79508597 15 30 C14.99355469 30.75152344 14.98710937 31.50304687 14.98046875 32.27734375 C13.9018187 53.09129472 -1.74327297 73.51779285 -16.28515625 87.29296875 C-18.08377498 88.90222257 -18.08377498 88.90222257 -19 91 C-20.32 91 -21.64 91 -23 91 C-21.51406979 86.47567517 -20.00170092 81.9644588 -18.38671875 77.484375 C-10.54816357 55.70602667 -4.66637519 34.09974455 -2.0012207 11.0847168 C-1.88480225 10.08351807 -1.76838379 9.08231934 -1.6484375 8.05078125 C-1.54708496 7.15012939 -1.44573242 6.24947754 -1.34130859 5.3215332 C-1 3 -1 3 0 0 Z " fill="#313A4B" transform="translate(467,415)"/>
<path d="M0 0 C5.25431335 0.41210301 8.2354518 1.2354518 12 5 C14.08726216 11.26178647 13.00825139 16.46632629 10.45703125 22.37109375 C6.77039146 29.02285937 1.30039107 35.40608705 -5.84375 38.3828125 C-13.94810733 40.70253797 -21.30728898 40.52632907 -29 37 C-35.4110301 33.41056323 -40.23206921 29.91982697 -43 23 C-43.47781739 18.93855222 -43.12557822 16.45734482 -41 13 C-38.8359375 11.078125 -38.8359375 11.078125 -36.375 9.25 C-35.55773437 8.63640625 -34.74046875 8.0228125 -33.8984375 7.390625 C-32.95871094 6.70226562 -32.95871094 6.70226562 -32 6 C-30 8 -30 8 -28.75 11.3125 C-27.07069312 15.24734652 -24.9632954 18.19414363 -21 20 C-15.67731672 20.9029552 -11.40914357 20.65424523 -6.5 18.375 C-0.89434762 13.04963024 -0.42220037 7.36666848 0 0 Z " fill="#6060A0" transform="translate(229,257)"/>
<path d="M0 0 C4.15261002 2.35428965 7.82483827 5.14473484 11.36328125 8.33984375 C12.10707031 9.01015625 12.85085937 9.68046875 13.6171875 10.37109375 C15.36328125 12.33984375 15.36328125 12.33984375 15.36328125 15.33984375 C11.45857604 14.77213838 8.89821325 13.6225932 5.61328125 11.46484375 C-4.28674461 5.40835734 -14.09470867 3.38895887 -25.6640625 6.03125 C-37.32761493 9.94091204 -45.82081685 16.60728195 -51.44921875 27.52734375 C-55.51602255 35.88469137 -56.00075552 44.81641233 -53.765625 53.8671875 C-49.59625638 65.58242982 -42.912835 71.72343087 -32.63671875 78.33984375 C-32.96671875 78.99984375 -33.29671875 79.65984375 -33.63671875 80.33984375 C-42.3352541 79.96969331 -48.16456938 75.17957857 -53.94921875 68.96484375 C-63.08375491 58.17444546 -63.70953548 46.999987 -62.63671875 33.33984375 C-61.0878642 25.68407697 -57.23392963 19.54922721 -52.63671875 13.33984375 C-52.03859375 12.45296875 -51.44046875 11.56609375 -50.82421875 10.65234375 C-38.34572112 -2.53921089 -16.7383332 -7.31488589 0 0 Z " fill="#030202" transform="translate(125.63671875,121.66015625)"/>
<path d="M0 0 C0.75692139 -0.00628418 1.51384277 -0.01256836 2.29370117 -0.01904297 C7.90668132 0.10913283 11.88212943 1.44297142 16.41015625 4.91796875 C18.70139892 8.06357309 18.1260907 11.80816431 17.5625 15.5 C14.85446262 20.91607476 10.74175939 24.92681475 5.296875 27.62109375 C-1.71457006 29.87477252 -10.94104334 29.66120836 -17.6875 26.53515625 C-21.67895126 24.17414155 -25.39462868 21.95295084 -27.26953125 17.54296875 C-28.05241767 13.71633702 -27.60730264 11.83307442 -25.8125 8.3125 C-18.95887519 1.49622464 -9.2384463 0.05852495 0 0 Z " fill="#030303" transform="translate(305.4375,253.5)"/>
<path d="M0 0 C3.7694321 0.26298363 5.77431907 0.83809846 8.875 3.0625 C11.06943416 6.09598252 11.79993169 7.99138765 11.55078125 11.75 C9.78928932 18.94588193 5.07232038 24.95178641 -1 29 C-5.55200746 31.07809036 -10.0435475 31.64482003 -15 31 C-18.625 29.625 -18.625 29.625 -22 28 C-23.093125 27.649375 -24.18625 27.29875 -25.3125 26.9375 C-29.02385864 25.64284001 -29.81017828 24.36504177 -31.625 20.875 C-33.32673958 16.66451032 -33.5841033 13.5268006 -33 9 C-30.75771217 6.07256866 -29.17813739 4.41394017 -25.6875 3.1875 C-25.130625 3.125625 -24.57375 3.06375 -24 3 C-23.608125 3.9075 -23.21625 4.815 -22.8125 5.75 C-20.83247612 9.30038764 -19.51345481 10.97000389 -16 13 C-10.9173375 13.72609464 -9.05809882 13.62702152 -4.625 11 C-1.34908672 7.25609911 -0.82112581 4.8446423 0 0 Z " fill="#55558A" transform="translate(373,241)"/>
<path d="M0 0 C10.03575596 9.74058667 18.08758036 22.25041848 18.609375 36.5625 C18.62300198 39.23338852 18.58980472 41.89330416 18.5 44.5625 C16.85609517 41.59599901 15.83731645 38.57243459 14.85205078 35.33422852 C12.67884276 28.26204913 10.16332354 22.40029021 5.5 16.5625 C4.98824219 15.87800781 4.47648437 15.19351563 3.94921875 14.48828125 C-4.97456391 3.30693066 -18.66322307 -2.21771753 -32.5 -4.4375 C-36.40017333 -4.73119193 -40.27743132 -4.77050735 -44.1875 -4.75 C-45.24388672 -4.74726074 -46.30027344 -4.74452148 -47.38867188 -4.74169922 C-55.47036608 -4.63392678 -62.70927696 -3.66187078 -70.5 -1.4375 C-72.12399442 -1.03756108 -73.74884583 -0.64106476 -75.375 -0.25 C-76.40625 0.018125 -77.4375 0.28625 -78.5 0.5625 C-71.42232591 -7.16706513 -60.91178343 -12.14788019 -50.5 -13.4375 C-49.67886719 -13.54578125 -48.85773438 -13.6540625 -48.01171875 -13.765625 C-30.24992643 -15.81402593 -13.80632112 -11.98479749 0 0 Z " fill="#434F63" transform="translate(401.5,80.4375)"/>
<path d="M0 0 C0.04374756 0.85996582 0.04374756 0.85996582 0.08837891 1.73730469 C1.00931267 17.96266066 3.30944496 29.02915342 15.2421875 40.84375 C17 43 17 43 17 47 C15.90625 49.359375 15.90625 49.359375 14.5 51.75 C14.0359375 52.54921875 13.571875 53.3484375 13.09375 54.171875 C12.7328125 54.77515625 12.371875 55.3784375 12 56 C4.83656733 54.61506968 -0.64478633 49.0779591 -4.6796875 43.24609375 C-10.27217652 33.73224409 -11.76575898 23.63903218 -9.26953125 12.83984375 C-5.03566622 0 -5.03566622 0 0 0 Z " fill="#F1959F" transform="translate(80,142)"/>
<path d="M0 0 C0.33 0.66 0.66 1.32 1 2 C2.66194738 2.67834587 4.3299357 3.34189099 6 4 C7.77860658 5.01402884 9.55615568 6.03023629 11.31835938 7.07250977 C19.89227193 12.13519099 28.58474928 15.80732854 38 19 C38 19.33 38 19.66 38 20 C16.55 20 -4.9 20 -27 20 C-27.66 18.35 -28.32 16.7 -29 15 C-27.84213989 14.42499756 -27.84213989 14.42499756 -26.66088867 13.83837891 C-23.79191661 12.41242441 -20.92385564 10.98465811 -18.05639648 9.55566406 C-16.81619792 8.93807596 -15.57564094 8.32120702 -14.3347168 7.70507812 C-12.54902127 6.81830902 -10.76472685 5.92872028 -8.98046875 5.0390625 C-7.90692139 4.50490723 -6.83337402 3.97075195 -5.72729492 3.42041016 C-2.89345401 2.00670558 -2.89345401 2.00670558 0 0 Z " fill="#A21A1A" transform="translate(231,486)"/>
<path d="M0 0 C7.74319294 0.00555865 13.69978127 1.65884245 19.578125 6.82421875 C22.91102337 10.48839918 25.02081417 14.94627061 27 19.4375 C27.30164063 20.11167969 27.60328125 20.78585938 27.9140625 21.48046875 C29.78718359 26.00571922 30.30552426 29.54911185 30 34.4375 C27 34.4375 27 34.4375 25.01953125 32.49609375 C24.29121094 31.63113281 23.56289063 30.76617187 22.8125 29.875 C18.81050288 25.28750169 14.67881802 21.31470235 10 17.4375 C8.55367188 16.21160156 8.55367188 16.21160156 7.078125 14.9609375 C1.87039753 10.55909995 -3.36051149 6.2826058 -9 2.4375 C-6.12670192 -0.43579808 -4.01113971 0.06873929 0 0 Z " fill="#DD6E7B" transform="translate(361,103.5625)"/>
<path d="M0 0 C-1.69917865 5.25200674 -4.34599757 9.35391071 -9.046875 12.26953125 C-14.23815465 14.8025177 -18.25821686 15.64826584 -24 15 C-27.625 13.625 -27.625 13.625 -31 12 C-32.11375 11.62875 -33.2275 11.2575 -34.375 10.875 C-37 10 -37 10 -38 9 C-38.125 6 -38.125 6 -38 3 C-37 2 -37 2 -34.625 1.8125 C-32 2 -32 2 -29 4 C-26.99105606 3.36079057 -24.99220557 2.68960962 -23 2 C-20.66666667 2 -18.33333333 2 -16 2 C-1.74898785 -0.41423397 -1.74898785 -0.41423397 0 0 Z " fill="#7474C1" transform="translate(382,257)"/>
<path d="M0 0 C3.3 0.99 6.6 1.98 10 3 C11.40932642 10.13471503 11.40932642 10.13471503 11 14 C8.64595008 17.1423081 6.2840071 18.72645662 3 21 C-5.415 18.03 -5.415 18.03 -14 15 C-9.5857471 9.70289652 -4.91863447 4.83383042 0 0 Z " fill="#212936" transform="translate(142,416)"/>
<path d="M0 0 C3.18845573 0.27174339 4.2010566 0.82153773 7 2.6875 C9.21925086 6.01637629 9.75890933 7.82686508 9.4765625 11.75 C8.60276841 15.30247432 6.9838283 16.69828114 4 18.6875 C1.16123251 19.38574523 -1.16196242 19.39128755 -4 18.6875 C-7 16.625 -7 16.625 -9 13.6875 C-9.82563373 9.14651447 -9.32543335 7.24683858 -7 3.25 C-3.47228916 0.23674699 -3.47228916 0.23674699 0 0 Z " fill="#F8F8F8" transform="translate(223,231.3125)"/>
<path d="M0 0 C4.42350331 0.50554324 6.78071602 1.95015202 10 5 C13.6952112 10.27887314 14.12622761 14.37723932 14.0625 20.75 C14.05347656 21.92046875 14.04445313 23.0909375 14.03515625 24.296875 C14.02355469 25.18890625 14.01195312 26.0809375 14 27 C13.5875 26.62488281 13.175 26.24976563 12.75 25.86328125 C11.88375 25.09564453 11.88375 25.09564453 11 24.3125 C10.36964844 23.75304687 9.73929687 23.19359375 9.08984375 22.6171875 C6.9846821 20.98814652 4.97035294 20.04485483 2.5625 18.9375 C0.5390625 17.75390625 0.5390625 17.75390625 -1 16 C-1.94587538 10.56464362 -1.74673 5.24019 0 0 Z " fill="#445064" transform="translate(467,415)"/>
<path d="M0 0 C2.69049419 1.65568873 3.65567968 2.90177571 4.59765625 5.90625 C5.26038297 9.35500264 5.32119716 11.4646714 3.5 14.5 C0.03020716 16.5818757 -2.01725299 16.62885479 -6 16 C-8.94239824 13.99666503 -10.67850156 12.5738114 -11.41015625 8.9921875 C-11.53404416 6.07274188 -11.31518619 3.63037238 -10 1 C-6.73245335 -0.63377333 -3.518985 -0.61724132 0 0 Z " fill="#F8F8F8" transform="translate(374,214)"/>
<path d="M0 0 C5.73283414 2.44131284 7.77131093 7.22451465 10.20703125 12.7265625 C12.26791948 18.01350546 13.50413543 22.3284764 13 28 C10 28 10 28 8.02734375 26.5234375 C0.95685065 19.25470628 0.07445487 11.96153059 -0.03125 2.078125 C-0.0209375 1.39234375 -0.010625 0.7065625 0 0 Z " fill="#ED929D" transform="translate(378,110)"/>
<path d="M0 0 C0.33 0 0.66 0 1 0 C1.08636719 0.54785156 1.17273438 1.09570312 1.26171875 1.66015625 C2.38074362 7.97392044 4.18776039 13.87914554 6.32299805 19.90844727 C7.31791286 22.75345022 8 24.95942477 8 28 C6.5390625 29.38671875 6.5390625 29.38671875 4.625 30.6875 C3.68527344 31.34298828 3.68527344 31.34298828 2.7265625 32.01171875 C1 33 1 33 -1 33 C-2.82754904 29.34490192 -2.18474067 25.02310749 -2.1875 21 C-2.19974609 20.09121094 -2.21199219 19.18242187 -2.22460938 18.24609375 C-2.23806568 11.93957421 -1.46705049 6.13085801 0 0 Z " fill="#9D1A1A" transform="translate(163,389)"/>
<path d="M0 0 C3.5625 1.6875 3.5625 1.6875 5.5625 4.6875 C5.1875 6.875 5.1875 6.875 4.5625 8.6875 C-2.88935467 9.19751287 -10.02267282 8.96405145 -16.4375 4.6875 C-17.2109375 2.546875 -17.2109375 2.546875 -17.4375 0.6875 C-11.81586382 -2.49049703 -6.00328239 -2.07763872 0 0 Z " fill="#2F2F2F" transform="translate(314.4375,257.3125)"/>
<path d="M0 0 C2.625 0.1875 2.625 0.1875 5.625 2.1875 C7.64184563 1.57367742 9.64143517 0.90158334 11.625 0.1875 C14.5 0.0625 14.5 0.0625 16.625 0.1875 C16.295 1.1775 15.965 2.1675 15.625 3.1875 C14.67625 3.64125 13.7275 4.095 12.75 4.5625 C9.29295676 6.36016248 8.29959059 7.74528602 6.625 11.1875 C5.14465236 10.71199439 3.66574979 10.23198784 2.1875 9.75 C1.36378906 9.48316406 0.54007812 9.21632813 -0.30859375 8.94140625 C-2.375 8.1875 -2.375 8.1875 -3.375 7.1875 C-3.5 4.1875 -3.5 4.1875 -3.375 1.1875 C-2.375 0.1875 -2.375 0.1875 0 0 Z " fill="#6565A5" transform="translate(347.375,258.8125)"/>
<path d="M0 0 C0.99 0 1.98 0 3 0 C4.33333333 2.66666667 5.66666667 5.33333333 7 8 C5.02204824 9.00240089 3.04260558 10.00186043 1.0625 11 C-0.03964844 11.556875 -1.14179688 12.11375 -2.27734375 12.6875 C-5 14 -5 14 -6 14 C-6.61514196 6.74132492 -6.61514196 6.74132492 -3.5625 3.0625 C-2.716875 2.381875 -1.87125 1.70125 -1 1 C-0.67 0.67 -0.34 0.34 0 0 Z " fill="#37375D" transform="translate(346,244)"/>
<path d="M0 0 C4.02545534 0.28084572 5.74482626 0.78365704 8.875 3.4375 C11 6 11 6 11 8 C5.66164461 9.92471317 0.65020618 11.39891424 -5 12 C-4.360625 10.948125 -3.72125 9.89625 -3.0625 8.8125 C-1.38245548 5.89171588 -0.41003948 3.3828257 0 0 Z " fill="#3D3D66" transform="translate(373,241)"/>
<path d="M0 0 C-1.1858237 3.37503669 -2.27573689 5.64722731 -5 8 C-5.66 7.34 -6.32 6.68 -7 6 C-6.67 5.34 -6.34 4.68 -6 4 C-9.27030606 5.01223759 -12.20441689 6.10613954 -15.25 7.6875 C-16.1575 8.120625 -17.065 8.55375 -18 9 C-18.66 8.67 -19.32 8.34 -20 8 C-18.19587357 4.73539027 -17.16605307 3.11070205 -14 1 C-11.67182036 0.63239269 -9.3381615 0.29758419 -7 0 C-4.3333581 -1.33332095 -2.83319697 -0.67102033 0 0 Z " fill="#6262A3" transform="translate(382,257)"/>
<path d="M0 0 C-1.20130753 3.60392259 -2.54718772 4.12243429 -5.8203125 5.80078125 C-6.45710938 6.11402344 -7.09390625 6.42726563 -7.75 6.75 C-8.37132812 7.07871094 -8.99265625 7.40742188 -9.6328125 7.74609375 C-12.62508653 9.24223077 -14.58882856 10.04133469 -17.953125 9.703125 C-18.62859375 9.47109375 -19.3040625 9.2390625 -20 9 C-20 9.66 -20 10.32 -20 11 C-20.66 11 -21.32 11 -22 11 C-21.10633592 7.34410148 -20.55523341 5.44133938 -17.5625 3.0625 C-15 2 -15 2 -12 3 C-12 3.66 -12 4.32 -12 5 C-10.95199219 4.45859375 -10.95199219 4.45859375 -9.8828125 3.90625 C-8.97273438 3.4421875 -8.06265625 2.978125 -7.125 2.5 C-6.22007812 2.0359375 -5.31515625 1.571875 -4.3828125 1.09375 C-2 0 -2 0 0 0 Z " fill="#6F6FB9" transform="translate(376,260)"/>
<path d="M0 0 C0.33 0 0.66 0 1 0 C1.22084624 6.09781001 1.01167675 11.21642935 -1 17 C-5.875 12.25 -5.875 12.25 -7 10 C-6.401875 9.46375 -5.80375 8.9275 -5.1875 8.375 C-2.78684406 5.76857355 -1.45981486 3.2115927 0 0 Z " fill="#C4C4C4" transform="translate(449,303)"/>
<path d="M0 0 C2.5 0.125 2.5 0.125 3.5 1.125 C3.625 4.125 3.625 4.125 3.5 7.125 C2.5 8.125 2.5 8.125 0.0625 8.3125 C-2.5 8.125 -2.5 8.125 -4.5 6.125 C-3.77607362 0.18880368 -3.77607362 0.18880368 0 0 Z " fill="#F8F8FA" transform="translate(194.5,280.875)"/>
<path d="M0 0 C2.5625 0.1875 2.5625 0.1875 4.5625 2.1875 C4.00694444 6.74305556 4.00694444 6.74305556 2.5625 8.1875 C0.0625 8.3125 0.0625 8.3125 -2.4375 8.1875 C-3.4375 7.1875 -3.4375 7.1875 -3.5625 4.1875 C-3.39891479 0.26145498 -3.39891479 0.26145498 0 0 Z " fill="#F6F6F9" transform="translate(347.4375,258.8125)"/>
<path d="M0 0 C1.796875 0.37109375 1.796875 0.37109375 4 1 C4.70640625 1.17660156 5.4128125 1.35320312 6.140625 1.53515625 C8.09375 2.0234375 10.046875 2.51171875 12 3 C12 3.33 12 3.66 12 4 C10.27507022 4.53469802 8.544802 5.05219175 6.8125 5.5625 C5.36810547 5.99755859 5.36810547 5.99755859 3.89453125 6.44140625 C0.87247412 7.02461026 -1.05929955 6.81178385 -4 6 C-1.125 1.125 -1.125 1.125 0 0 Z " fill="#464675" transform="translate(351,252)"/>
<path d="M0 0 C0.598125 0.165 1.19625 0.33 1.8125 0.5 C4.25988354 1.05940195 5.63996734 0.75858193 8 0 C7 3 7 3 5.15234375 3.94921875 C4.42144531 4.19285156 3.69054687 4.43648438 2.9375 4.6875 C1.83728516 5.06455078 1.83728516 5.06455078 0.71484375 5.44921875 C0.14894531 5.63097656 -0.41695313 5.81273437 -1 6 C-1.042721 4.33388095 -1.04063832 2.66617115 -1 1 C-0.67 0.67 -0.34 0.34 0 0 Z " fill="#3F3F6A" transform="translate(341,252)"/>
<path d="M0 0 C-0.33 0.99 -0.66 1.98 -1 3 C-3.06640625 3.94921875 -3.06640625 3.94921875 -5.5625 4.6875 C-6.38878906 4.93886719 -7.21507812 5.19023437 -8.06640625 5.44921875 C-8.70449219 5.63097656 -9.34257812 5.81273437 -10 6 C-10 5.01 -10 4.02 -10 3 C-8.70990357 2.49596232 -7.41786211 1.99690074 -6.125 1.5 C-5.04605469 1.08234375 -5.04605469 1.08234375 -3.9453125 0.65625 C-2 0 -2 0 0 0 Z " fill="#49497A" transform="translate(375,251)"/>
<path d="M0 0 C4.46840411 0.49648935 5.68987756 0.68987756 9 4 C4.545 4.495 4.545 4.495 0 5 C0 3.35 0 1.7 0 0 Z " fill="#282843" transform="translate(373,241)"/>
<path d="M0 0 C0 0.99 0 1.98 0 3 C-2.3125 4.75 -2.3125 4.75 -5 6 C-5.99 5.67 -6.98 5.34 -8 5 C-3.375 0 -3.375 0 0 0 Z " fill="#25253E" transform="translate(349,244)"/>
<path d="M0 0 C0 0.66 0 1.32 0 2 C-3 4 -3 4 -6 4 C-6.66 5.32 -7.32 6.64 -8 8 C-8.99 8 -9.98 8 -11 8 C-10.525625 7.566875 -10.05125 7.13375 -9.5625 6.6875 C-7.76313043 4.97690387 -7.76313043 4.97690387 -7 2 C-4.56723614 0.81480735 -2.71982714 0 0 0 Z " fill="#343458" transform="translate(379,244)"/>
<path d="M0 0 C0 0.66 0 1.32 0 2 C-3.3 3.32 -6.6 4.64 -10 6 C-10 5.01 -10 4.02 -10 3 C-3.375 0 -3.375 0 0 0 Z " fill="#2F2F50" transform="translate(350,247)"/>
<path d="M0 0 C0 0.66 0 1.32 0 2 C-1.28650706 2.69710731 -2.57940665 3.38242876 -3.875 4.0625 C-4.95394531 4.63677734 -4.95394531 4.63677734 -6.0546875 5.22265625 C-6.69664062 5.47917969 -7.33859375 5.73570312 -8 6 C-8.66 5.67 -9.32 5.34 -10 5 C-3.87096774 0 -3.87096774 0 0 0 Z " fill="#49497A" transform="translate(384,249)"/>
<path d="M0 0 C-0.33 0.99 -0.66 1.98 -1 3 C-4.5625 4.1875 -4.5625 4.1875 -8 5 C-5.72541886 1.64228499 -4.30291326 0 0 0 Z " fill="#6969AF" transform="translate(363,262)"/>
<path d="M0 0 C-0.33 0.99 -0.66 1.98 -1 3 C-4.0625 4.1875 -4.0625 4.1875 -7 5 C-6 2 -6 2 -4.0625 0.8125 C-2 0 -2 0 0 0 Z " fill="#5D5D9C" transform="translate(359,259)"/>
<path d="M0 0 C2.97851562 0.1953125 2.97851562 0.1953125 5.95703125 0.390625 C5.95703125 0.720625 5.95703125 1.050625 5.95703125 1.390625 C0.51203125 2.875625 0.51203125 2.875625 -5.04296875 4.390625 C-2.04296875 0.390625 -2.04296875 0.390625 0 0 Z " fill="#4B4B7E" transform="translate(357.04296875,254.609375)"/>
</svg>
